Coordinates
version=1
nRows=9
nColumns=24
inDegrees=yes

Units are S.I. units (second, meters, Newtons, ...)
Angles are in degrees.

endheader
time	pelvis_tilt	pelvis_list	pelvis_rotation	pelvis_tx	pelvis_ty	pelvis_tz	hip_flexion_r	hip_adduction_r	hip_rotation_r	knee_angle_r	ankle_angle_r	subtalar_angle_r	mtp_angle_r	hip_flexion_l	hip_adduction_l	hip_rotation_l	knee_angle_l	ankle_angle_l	subtalar_angle_l	mtp_angle_l	lumbar_extension	lumbar_bending	lumbar_rotation
      4.04000000	     -5.25102807	    -18.01008182	     12.66747495	     -0.98644685	     -0.05643986	      0.43878276	     29.21511861	     18.98034547	     -7.25194864	    -27.94175349	      3.08980628	      2.70985495	      5.99378190	     22.74822564	    -18.89321423	     11.08993477	    -71.95487926	    -31.88962334	     15.89494717	     27.71287317	      8.52445905	     18.71224528	    -13.84765526
      4.04500000	     -5.15588593	    -18.05619283	     12.45424573	     -0.97893727	     -0.05522895	      0.43936819	     28.30325273	     19.45352800	     -6.66266058	    -27.46851326	      3.33971196	      2.35498665	      5.44784042	     23.58902097	    -18.63059097	     11.35078717	    -72.57886351	    -31.05045981	     15.11991776	     28.56485687	      8.37400999	     18.81498163	    -13.41071252
      4.05000000	     -5.10484751	    -18.06451205	     12.29539834	     -0.97148159	     -0.05407658	      0.43976579	     27.43171638	     19.78480814	     -6.24878641	    -26.99129495	      3.70044695	      2.36800627	      5.42698466	     24.49243318	    -18.26242216	     11.65308760	    -73.17140953	    -30.04222480	     14.42012975	     29.11011620	      8.29057519	     18.85694756	    -13.10088882
      4.05500000	     -5.00962147	    -18.05275515	     12.05444458	     -0.96398254	     -0.05279079	      0.44033317	     26.45768083	     20.19913722	     -5.55383909	    -26.47285217	      3.88670614	      2.01912551	      4.87691869	     25.27212063	    -17.93560737	     11.86027233	    -73.63643242	    -28.95793219	     13.91807466	     29.77884817	      8.12121655	     18.90236291	    -12.63530121
      4.06000000	     -4.94853423	    -18.03112617	     11.84994802	     -0.95650404	     -0.05155176	      0.44080166	     25.51143479	     20.54035294	     -4.95577136	    -25.93949804	      4.13192350	      1.84245172	      4.51656036	     26.09969622	    -17.55745000	     12.09257102	    -74.03773155	    -27.88352468	     13.40202093	     30.29595003	      8.00958529	     18.92151790	    -12.21240182
      4.06500000	     -4.90175240	    -17.96503014	     11.63333615	     -0.94905235	     -0.05029828	      0.44125403	     24.55577648	     20.83269634	     -4.29637977	    -25.40021024	      4.32997810	      1.60693804	      4.12061657	     26.90287906	    -17.12727883	     12.28620964	    -74.34909935	    -26.77435255	     12.95324319	     30.75314180	      7.89530291	     18.89279706	    -11.82682899
      4.07000000	     -4.86377513	    -17.88468347	     11.40858425	     -0.94160532	     -0.04905582	      0.44170427	     23.59036521	     21.10001858	     -3.62009721	    -24.84284578	      4.50163192	      1.35354031	      3.71852514	     27.69411062	    -16.68404999	     12.45534264	    -74.57769769	    -25.67728066	     12.55685515	     31.14505272	      7.79519521	     18.84987529	    -11.40424586
      4.07500000	     -4.83917185	    -17.78515992	     11.17213593	     -0.93418709	     -0.04783169	      0.44214311	     22.62370642	     21.33632462	     -2.91507235	    -24.27693122	      4.64754938	      1.08668233	      3.30043720	     28.47246367	    -16.21831430	     12.59914589	    -74.72292403	    -24.59542048	     12.19793126	     31.47346443	      7.69755227	     18.78599383	    -10.98643803
      4.08000000	     -4.82517349	    -17.67221037	     10.92466203	     -0.92681214	     -0.04664166	      0.44257920	     21.66148276	     21.54514718	     -2.20438373	    -23.71002829	      4.77475690	      0.81298893	      2.86705144	     29.24119671	    -15.74077700	     12.71683909	    -74.79037162	    -23.54322943	     11.86461374	     31.73986448	      7.59885813	     18.71016206	    -10.56065239
